<?xml version="1.0" encoding="UTF-8" standalone="no"?>
<svg
   xmlns:dc="http://purl.org/dc/elements/1.1/"
   xmlns:cc="http://creativecommons.org/ns#"
   xmlns:rdf="http://www.w3.org/1999/02/22-rdf-syntax-ns#"
   xmlns:svg="http://www.w3.org/2000/svg"
   xmlns="http://www.w3.org/2000/svg"
   version="1.1"
   x="0px"
   y="0px"
   viewBox="0 0 1000 1000"
   enable-background="new 0 0 1000 1000"
   xml:space="preserve"
   id="svg68">

<rect
   style="fill:#f2f2f2;stroke-width:0.998775"
   id="rect82"
   width="1000"
   height="1000"
   x="0"
   y="0" /><path
   style="fill:#666666;stroke-width:1.20048"
   d="m 261.2501,753.16533 c -3.35866,-1.70519 -6.50104,-4.63114 -8.70349,-8.10403 -3.28429,-5.17879 -3.44671,-6.08997 -3.44144,-19.30593 0.0161,-40.29503 13.18126,-85.27566 35.53671,-121.41592 25.04405,-40.4867 62.54762,-73.5871 106.81296,-94.27242 6.21844,-2.90589 11.30626,-5.48397 11.30626,-5.72906 0,-0.24509 -4.10358,-3.53424 -9.11907,-7.30919 -60.20056,-45.31059 -84.78007,-125.25533 -60.65238,-197.27165 14.47118,-43.19359 47.39011,-80.82042 88.92247,-101.63968 47.16055,-23.64055 105.10158,-24.28755 152.51765,-1.70312 15.05067,7.16869 21.45923,11.09579 34.21369,20.9658 33.58611,25.99053 56.37967,63.47244 65.00874,106.90078 3.01193,15.15871 3.00213,47.26341 -0.0195,63.47419 -8.08519,43.37669 -32.69268,83.41899 -67.0901,109.17172 -5.11704,3.83104 -9.30372,7.1508 -9.30372,7.37726 0,0.22645 6.07743,3.30742 13.5054,6.8466 43.36404,20.66153 79.86065,53.17225 104.61385,93.18877 8.4147,13.60336 12.4199,21.67075 19.123,38.51769 10.1128,25.41662 16.403,56.90063 16.4137,82.154 0.01,15.77017 -2.2053,21.73947 -9.9562,26.86879 -4.1552,2.74978 -6.1413,3.22211 -13.5487,3.22211 -7.8746,0 -9.1076,-0.3405 -13.2929,-3.67103 -7.5092,-5.97552 -9.5167,-11.32453 -10.3983,-27.7069 -1.5784,-29.32958 -7.7749,-53.46207 -20.132,-78.40469 C 673.12549,624.24388 663.3709,610.57741 647.05882,594.17077 607.72932,554.61327 558.16402,534.5024 500,534.5024 c -58.40285,0 -108.67575,20.51808 -147.65906,60.26466 -34.88846,35.57156 -53.29324,77.92416 -56.03965,128.95705 -0.87987,16.34934 -2.89165,21.73398 -10.33152,27.65285 -6.23474,4.96012 -16.94602,5.73503 -24.71967,1.78837 z M 530.15466,481.53874 c 37.70766,-9.56534 68.1611,-33.75619 84.98104,-67.50517 9.48389,-19.0293 13.40405,-35.81139 13.39598,-57.3478 -0.006,-16.70447 -2.28292,-30.45486 -7.33397,-44.29506 -14.78586,-40.51423 -47.11722,-69.46798 -91.14873,-81.62656 -13.15601,-3.63282 -46.94195,-3.63282 -60.09796,0 -44.03151,12.15858 -76.36287,41.11233 -91.14873,81.62656 -9.5172,26.07777 -9.91797,58.33733 -1.05557,84.96823 13.18679,39.62541 46.15701,71.01027 87.04452,82.859 5.77022,1.67214 14.02692,3.53549 18.34823,4.14076 12.60502,1.76555 33.99653,0.48249 47.01519,-2.81996 z"
   id="path74-5" /></svg>
